<?xml version="1.0" standalone="no"?>
<!DOCTYPE svg PUBLIC "-//W3C//DTD SVG 20010904//EN"
 "http://www.w3.org/TR/2001/REC-SVG-20010904/DTD/svg10.dtd">
<svg version="1.0" xmlns="http://www.w3.org/2000/svg"
 width="512.000000pt" height="512.000000pt" viewBox="0 0 512.000000 512.000000"
 preserveAspectRatio="xMidYMid meet">
<metadata>
Created by potrace 1.11, written by Peter Selinger 2001-2013
</metadata>
<g transform="translate(0.000000,512.000000) scale(0.100000,-0.100000)"
fill="#000000" stroke="none">
<path d="M2457 4497 c-65 -35 -123 -69 -129 -75 -7 -7 -15 -12 -20 -12 -4 0
-68 -34 -143 -75 -74 -41 -137 -75 -140 -75 -3 0 -22 -10 -43 -23 -20 -13 -75
-44 -122 -69 -47 -25 -152 -82 -235 -128 -141 -78 -185 -102 -310 -170 -27
-15 -77 -42 -110 -60 -95 -52 -136 -75 -197 -109 -32 -17 -84 -45 -115 -62
-32 -18 -78 -43 -103 -57 -25 -13 -74 -40 -110 -60 -36 -19 -94 -51 -130 -71
-36 -20 -90 -49 -120 -64 -30 -15 -66 -37 -80 -50 -189 -170 -203 -503 -29
-677 l46 -47 -38 -37 c-43 -44 -101 -150 -117 -216 -39 -160 5 -337 108 -442
l47 -47 -44 -46 c-58 -62 -101 -149 -118 -240 -7 -38 -7 -142 0 -175 2 -14 8
-38 11 -55 31 -145 182 -276 349 -302 17 -2 55 -11 85 -18 30 -8 66 -16 80
-19 28 -6 32 -6 166 -36 55 -13 108 -24 119 -25 11 -2 20 -4 20 -5 0 -1 10 -3
22 -6 12 -2 84 -18 160 -35 166 -37 170 -38 208 -45 17 -2 46 -9 65 -14 19 -5
50 -12 68 -15 19 -3 71 -14 117 -25 46 -11 98 -22 116 -25 18 -3 35 -8 39 -10
4 -2 22 -7 41 -10 36 -6 337 -71 379 -82 14 -4 27 -7 30 -8 5 -1 49 -10 95
-19 11 -2 61 -13 110 -24 368 -84 353 -82 422 -39 21 13 67 39 103 59 62 34
207 115 540 303 85 48 175 99 200 113 25 14 128 72 228 128 101 57 188 104
193 104 5 0 9 5 9 10 0 6 4 10 9 10 5 0 41 18 80 40 74 42 103 58 191 107 402
224 445 251 454 277 15 41 -3 79 -42 90 -34 10 -61 -1 -172 -66 -19 -11 -111
-63 -205 -116 -93 -52 -186 -104 -205 -115 -19 -11 -55 -31 -80 -45 -25 -14
-146 -82 -270 -152 -124 -70 -245 -138 -270 -152 -25 -14 -227 -127 -449 -252
-378 -213 -406 -227 -443 -222 -21 3 -43 8 -47 10 -4 3 -23 8 -42 11 -19 3
-62 12 -95 20 -34 8 -73 16 -85 19 -13 2 -66 14 -117 25 -51 12 -110 24 -130
27 -20 3 -40 8 -45 11 -4 2 -19 7 -34 9 -15 3 -59 12 -98 20 -38 9 -110 24
-160 35 -49 11 -128 28 -175 40 -47 11 -101 22 -120 25 -19 3 -38 8 -41 10 -3
2 -21 6 -40 9 -33 6 -130 27 -299 65 -144 33 -414 92 -435 96 -39 6 -250 54
-283 63 -76 22 -137 83 -171 168 -19 46 -21 155 -5 215 17 68 74 149 123 176
42 24 88 27 154 12 23 -5 80 -18 127 -29 47 -11 101 -23 120 -26 19 -3 64 -13
100 -21 36 -9 74 -17 85 -19 11 -2 43 -9 70 -15 28 -6 59 -13 70 -15 11 -3 72
-16 135 -31 63 -14 126 -28 140 -31 14 -2 104 -22 200 -43 96 -21 186 -41 200
-44 14 -2 86 -18 160 -35 74 -17 146 -33 161 -36 14 -3 86 -18 160 -35 73 -17
145 -32 159 -34 14 -2 45 -9 70 -16 25 -7 54 -13 65 -14 11 -2 54 -11 94 -21
63 -15 79 -16 110 -5 20 7 38 16 41 20 3 3 39 25 80 47 89 48 143 78 173 97
12 7 47 27 77 43 100 55 188 104 359 203 38 22 73 40 76 40 4 0 19 8 33 19 23
15 173 101 327 186 22 12 58 32 80 45 37 21 145 81 260 145 28 15 95 54 150
85 55 31 121 69 148 84 184 102 241 136 249 150 16 23 7 64 -18 89 -21 21 -30
24 -55 17 -30 -9 -456 -244 -511 -282 -14 -10 -33 -18 -41 -18 -9 0 -17 -4
-19 -8 -1 -4 -48 -33 -103 -64 -55 -30 -118 -66 -140 -78 -285 -162 -589 -330
-596 -330 -5 0 -9 -4 -9 -10 0 -5 -4 -10 -9 -10 -4 0 -91 -47 -192 -103 -249
-140 -272 -153 -326 -183 -27 -15 -53 -31 -60 -36 -12 -10 -45 -6 -168 23 -44
10 -98 21 -120 25 -22 3 -42 7 -45 9 -3 2 -59 15 -125 29 -156 34 -285 63
-360 81 -33 8 -96 21 -140 30 -44 10 -87 18 -95 20 -15 3 -391 86 -410 90 -3
1 -21 5 -40 9 -19 4 -82 18 -140 31 -93 21 -310 69 -365 81 -11 2 -32 6 -47 9
-55 10 -205 46 -254 61 -62 18 -128 79 -156 143 -53 124 -20 294 74 382 54 50
101 61 181 42 34 -8 76 -17 92 -20 17 -2 66 -13 110 -23 109 -25 176 -40 200
-44 20 -4 191 -43 230 -52 11 -3 31 -7 45 -9 14 -2 77 -16 140 -30 63 -15 126
-29 140 -31 14 -3 42 -9 62 -13 67 -15 116 32 96 91 -14 40 -4 37 -337 109
-52 11 -97 22 -100 24 -3 1 -23 6 -43 9 -20 3 -118 24 -218 46 -100 22 -198
43 -218 46 -20 3 -40 8 -45 11 -4 2 -18 6 -30 8 -160 30 -265 63 -307 97 -134
111 -125 385 17 493 51 39 68 41 163 21 36 -8 142 -30 235 -50 94 -20 188 -41
210 -46 22 -5 72 -16 110 -24 39 -8 147 -30 240 -50 206 -44 224 -48 227 -46
2 1 15 -3 29 -9 15 -5 46 -13 70 -16 24 -4 46 -8 50 -10 3 -2 20 -7 37 -10 18
-3 65 -12 105 -21 39 -8 81 -17 92 -19 11 -3 49 -11 85 -20 53 -12 397 -85
475 -101 25 -5 151 -33 185 -41 52 -12 87 -4 160 38 41 24 88 51 103 59 15 8
111 62 214 120 102 58 202 114 222 125 72 40 266 150 286 162 11 7 37 20 58
30 20 10 37 21 37 25 0 5 5 8 11 8 6 0 41 17 77 39 37 21 92 52 122 69 119 65
256 142 270 152 8 5 33 19 55 31 139 75 503 284 518 297 22 19 22 64 -1 91 -9
12 -37 27 -62 32 -63 14 -220 49 -250 55 -14 3 -32 7 -40 9 -8 3 -33 7 -55 11
-22 3 -43 8 -46 10 -3 2 -60 15 -125 29 -65 14 -128 28 -139 30 -40 9 -70 15
-90 19 -11 2 -50 11 -86 20 -37 8 -78 17 -90 20 -13 2 -67 14 -119 26 -52 12
-104 23 -115 26 -11 2 -33 6 -50 10 -31 6 -111 24 -217 49 -35 8 -74 16 -88
19 -14 2 -97 20 -185 39 -88 20 -175 39 -194 42 -19 3 -38 8 -41 10 -4 3 -23
7 -41 10 -19 3 -61 12 -94 21 -178 44 -182 43 -318 -29z"/>
<path d="M4830 3321 c-14 -3 -44 -18 -67 -33 -24 -16 -45 -28 -47 -28 -2 0
-46 -24 -98 -54 -51 -29 -114 -65 -140 -80 -67 -37 -138 -76 -173 -96 -16 -10
-59 -34 -95 -54 -36 -20 -72 -41 -80 -46 -8 -6 -22 -13 -30 -17 -8 -4 -55 -30
-105 -58 -49 -28 -137 -78 -195 -111 -58 -32 -118 -67 -135 -76 -16 -10 -47
-26 -67 -35 -21 -10 -38 -21 -38 -25 0 -5 -4 -8 -9 -8 -6 0 -36 -15 -68 -34
-32 -18 -78 -44 -103 -58 -25 -14 -137 -77 -250 -140 -113 -63 -231 -129 -262
-146 l-56 -32 -114 26 c-62 14 -122 28 -133 30 -11 2 -45 9 -75 15 -30 5 -70
15 -88 21 -83 26 -142 2 -142 -57 0 -48 32 -70 130 -89 91 -19 90 -19 165 -36
28 -6 59 -14 70 -16 34 -7 59 -12 105 -23 112 -25 96 -30 298 83 103 58 192
110 199 116 7 5 15 10 18 10 4 0 137 73 290 160 22 13 96 54 165 93 136 76
138 77 320 180 69 39 143 80 165 91 22 12 42 23 45 27 4 4 307 175 545 307
145 80 163 102 132 161 -14 28 -42 40 -77 32z"/>
<path d="M1849 2738 c-3 -36 -5 -724 -2 -730 2 -4 40 15 84 42 l81 50 31 -33
c18 -19 60 -64 94 -102 l62 -68 1 244 c0 134 1 253 0 264 0 11 1 40 1 65 0 25
0 51 0 58 -3 29 -3 60 0 100 1 23 -3 48 -8 53 -10 10 -179 45 -223 47 -8 0
-26 3 -40 6 -76 17 -80 17 -81 4z"/>
</g>
</svg>
